<svg width="46" height="62" viewBox="0 0 46 62" fill="none" xmlns="http://www.w3.org/2000/svg">
<path d="M2.38593 55.2547V60.4783C2.53766 60.5333 2.70041 60.5649 2.87042 60.5649H42.338V55.2547L22.3619 53.8195L2.38593 55.2547Z" fill="#9AD7FF"/>
<path d="M42.338 49.9445H2.87042C2.70041 49.9445 2.53766 49.9761 2.3858 50.031V55.2547H42.338V49.9445Z" fill="#C2E7FF"/>
<path d="M6.74539 55.2546C6.74539 52.6466 4.86468 50.4792 2.38577 50.031C1.83334 50.2311 1.4353 50.7605 1.4353 51.3796V59.1296C1.4353 59.7488 1.83346 60.2782 2.38577 60.4783C4.86468 60.03 6.74539 57.8626 6.74539 55.2546Z" fill="#4EB9FF"/>
<path d="M2.1528 0C0.963906 0 2.21729e-08 0.963906 2.21729e-08 2.1528V51.3797L10.0463 49.9445L15.787 24.9723L10.0463 0H2.1528Z" fill="#FFC0D5"/>
<path d="M42.338 2.87041L34.301 0H10.0463V49.9444H40.9028L45.2084 37.6015V10.9075L42.338 2.87041Z" fill="#FF755C"/>
<path d="M33.9422 25.7171H21.3125C20.52 25.7171 19.8773 25.0744 19.8773 24.2819C19.8773 23.4893 20.52 22.8467 21.3125 22.8467H33.9422C34.7348 22.8467 35.3774 23.4893 35.3774 24.2819C35.3774 25.0744 34.7347 25.7171 33.9422 25.7171Z" fill="#FFC0D5"/>
<path d="M36.2385 19.9764H19.0162C18.2236 19.9764 17.581 19.3337 17.581 18.5412C17.581 17.7486 18.2236 17.106 19.0162 17.106H36.2384C37.031 17.106 37.6736 17.7486 37.6736 18.5412C37.6736 19.3337 37.0309 19.9764 36.2385 19.9764Z" fill="#FFC0D5"/>
<path d="M45.2084 49.9444L34.301 48.5093L45.2084 37.6019V49.9444Z" fill="#FFCE47"/>
<path d="M45.2084 0V10.9074L34.301 0H45.2084Z" fill="#FFCE47"/>
<path d="M43.7732 59.1296H2.87041V51.3796H43.7732C44.5658 51.3796 45.2084 50.7369 45.2084 49.9444C45.2084 49.1518 44.5658 48.5092 43.7732 48.5092H2.87041C1.28771 48.5092 2.21729e-08 49.7967 2.21729e-08 51.3796V59.1296C2.21729e-08 60.7123 1.28759 62 2.87041 62H43.7732C44.5658 62 45.2084 61.3573 45.2084 60.5648C45.2084 59.7723 44.5656 59.1296 43.7732 59.1296Z" fill="#FF4181"/>
</svg>
