<svg width="22" height="22" viewBox="0 0 22 22" fill="none" xmlns="http://www.w3.org/2000/svg">
<path fill-rule="evenodd" clip-rule="evenodd" d="M20.8881 15.9201V18.9201C20.8904 19.4832 20.6552 20.0213 20.2402 20.402C19.8252 20.7827 19.269 20.9708 18.7081 20.9201C15.631 20.5857 12.6751 19.5342 10.0781 17.8501C7.66195 16.3148 5.61346 14.2663 4.07812 11.8501C2.3881 9.2413 1.33637 6.27109 1.00812 3.1801C0.957597 2.62097 1.1444 2.06635 1.52289 1.65172C1.90138 1.23709 2.43672 1.00063 2.99812 1.0001H5.99812C7.00199 0.990218 7.85762 1.72607 7.99812 2.7201C8.12475 3.68016 8.35957 4.62283 8.69812 5.5301C8.97286 6.26097 8.79714 7.0849 8.24812 7.6401L6.97812 8.9101C8.40168 11.4136 10.4746 13.4865 12.9781 14.9101L14.2481 13.6401C14.8033 13.0911 15.6272 12.9154 16.3581 13.1901C17.2654 13.5286 18.2081 13.7635 19.1681 13.8901C20.1737 14.032 20.9133 14.9049 20.8881 15.9201Z" stroke="#3A4047" stroke-width="2" stroke-linecap="round" stroke-linejoin="round"/>
</svg>
