<svg width="62" height="62" viewBox="0 0 62 62" fill="none" xmlns="http://www.w3.org/2000/svg">
<path d="M20.6657 5.8768L25.0733 33.9383L20.6657 62L0 56.1232V0L20.6657 5.8768Z" fill="#85C250"/>
<path d="M62 5.8768V62L41.3328 56.1232L38.3945 28.0617L41.3328 0L62 5.8768Z" fill="#85C250"/>
<path d="M41.3328 0V56.1232L20.6657 62V5.8768L41.3328 0Z" fill="#C9D467"/>
<path d="M14.7899 54.4523C14.657 54.4523 14.5217 54.4342 14.3874 54.3959L5.47502 51.8615C4.69457 51.6396 4.2418 50.8269 4.46376 50.0465C4.68561 49.266 5.49791 48.8131 6.27884 49.0352L15.1912 51.5696C15.9717 51.7916 16.4244 52.6042 16.2025 53.3847C16.0187 54.0308 15.4299 54.4523 14.7899 54.4523Z" fill="#174461"/>
<path d="M14.7899 47.1064C14.657 47.1064 14.5217 47.0882 14.3874 47.0499L5.47502 44.5156C4.69457 44.2936 4.2418 43.4809 4.46376 42.7005C4.68561 41.92 5.49791 41.4669 6.27884 41.6892L15.1912 44.2236C15.9717 44.4456 16.4244 45.2582 16.2025 46.0387C16.0187 46.6848 15.4299 47.1064 14.7899 47.1064Z" fill="#174461"/>
<path d="M14.7899 39.7604C14.657 39.7604 14.5217 39.7422 14.3874 39.704L5.47502 37.1696C4.69457 36.9476 4.2418 36.135 4.46376 35.3545C4.68561 34.5741 5.49791 34.1213 6.27884 34.3433L15.1912 36.8777C15.9717 37.0996 16.4244 37.9123 16.2025 38.6927C16.0187 39.3389 15.4299 39.7604 14.7899 39.7604Z" fill="#174461"/>
<path d="M5.8768 9.01709V28.4105L14.7892 30.9449V11.5515L5.8768 9.01709Z" fill="#174461"/>
<path d="M26.5421 13.0213C25.902 13.0213 25.3133 12.5997 25.1296 11.9536C24.9077 11.173 25.3604 10.3606 26.1409 10.1385L35.0543 7.60401C35.8344 7.38205 36.6473 7.83494 36.8694 8.61527C37.0914 9.39584 36.6386 10.2083 35.8582 10.4303L26.9447 12.9648C26.8103 13.003 26.6751 13.0213 26.5421 13.0213Z" fill="white"/>
<path d="M26.5421 54.4524C25.902 54.4524 25.3133 54.0309 25.1296 53.3847C24.9077 52.6042 25.3604 51.7918 26.1409 51.5697L35.0543 49.0352C35.8344 48.8132 36.6473 49.266 36.8694 50.0464C37.0914 50.827 36.6386 51.6394 35.8582 51.8615L26.9447 54.396C26.8103 54.4341 26.6751 54.4524 26.5421 54.4524Z" fill="white"/>
<path d="M26.5421 47.1065C25.902 47.1065 25.3133 46.685 25.1296 46.0388C24.9077 45.2582 25.3604 44.4458 26.1409 44.2237L35.0543 41.6892C35.8344 41.4673 36.6473 41.92 36.8694 42.7005C37.0914 43.4811 36.6386 44.2935 35.8582 44.5156L26.9447 47.05C26.8103 47.0883 26.6751 47.1065 26.5421 47.1065Z" fill="white"/>
<path d="M26.5421 39.7605C25.902 39.7605 25.3133 39.339 25.1296 38.6928C24.9077 37.9122 25.3604 37.0998 26.1409 36.8777L35.0543 34.3432C35.8344 34.1214 36.6473 34.5742 36.8694 35.3545C37.0914 36.1351 36.6386 36.9476 35.8582 37.1696L26.9447 39.704C26.8103 39.7422 26.6751 39.7605 26.5421 39.7605Z" fill="white"/>
<path d="M26.5421 32.4145C25.902 32.4145 25.3133 31.993 25.1296 31.3469C24.9077 30.5663 25.3604 29.7537 26.1409 29.5318L35.0543 26.9973C35.8344 26.7754 36.6473 27.2281 36.8694 28.0085C37.0914 28.7891 36.6386 29.6015 35.8582 29.8236L26.9447 32.3581C26.8103 32.3964 26.6751 32.4145 26.5421 32.4145Z" fill="white"/>
<path d="M56.1239 13.0212C55.991 13.0212 55.8557 13.0031 55.7214 12.9648L46.8079 10.4302C46.0275 10.2082 45.5747 9.39556 45.7967 8.61511C46.0186 7.83466 46.8309 7.38201 47.6118 7.60386L56.5252 10.1385C57.3057 10.3604 57.7584 11.1731 57.5365 11.9535C57.3527 12.5997 56.7639 13.0212 56.1239 13.0212Z" fill="#174461"/>
<path d="M56.1239 20.3671C55.991 20.3671 55.8557 20.349 55.7214 20.3107L46.8079 17.7761C46.0275 17.5541 45.5747 16.7415 45.7967 15.961C46.0186 15.1806 46.8309 14.728 47.6118 14.9498L56.5252 17.4844C57.3057 17.7063 57.7584 18.519 57.5365 19.2995C57.3527 19.9456 56.7639 20.3671 56.1239 20.3671Z" fill="#174461"/>
<path d="M56.1239 27.7132C55.991 27.7132 55.8557 27.695 55.7214 27.6568L46.8079 25.1222C46.0275 24.9002 45.5747 24.0875 45.7967 23.3071C46.0186 22.5266 46.8309 22.0741 47.6118 22.2958L56.5252 24.8304C57.3057 25.0524 57.7584 25.8651 57.5365 26.6455C57.3527 27.2917 56.7639 27.7132 56.1239 27.7132Z" fill="#174461"/>
<path d="M47.2097 31.0549V50.4482L56.1232 52.983V33.5895L47.2097 31.0549Z" fill="#174461"/>
</svg>
