<svg width="25" height="25" viewBox="0 0 25 25" fill="none" xmlns="http://www.w3.org/2000/svg">
<path fill-rule="evenodd" clip-rule="evenodd" d="M23.9993 18.2199V21.6823C24.0019 22.3323 23.7299 22.9532 23.25 23.3926C22.7701 23.832 22.1269 24.0491 21.4783 23.9906C17.9197 23.6047 14.5015 22.3911 11.4982 20.4474C8.7041 18.6754 6.33516 16.3112 4.55964 13.5226C2.60525 10.5116 1.38899 7.08359 1.00939 3.51614C0.950964 2.87083 1.16698 2.23072 1.60469 1.75218C2.04239 1.27363 2.66147 1.00072 3.3107 1.00011H6.77999C7.9409 0.98871 8.93038 1.83798 9.09286 2.98524C9.23929 4.09329 9.51085 5.18125 9.90236 6.22838C10.2201 7.07191 10.0169 8.02284 9.38197 8.66362L7.9133 10.1294C9.55954 13.0188 11.9567 15.4112 14.8519 17.0542L16.3206 15.5885C16.9626 14.9548 17.9154 14.752 18.7606 15.0691C19.8098 15.4598 20.9 15.7309 22.0102 15.877C23.1731 16.0407 24.0284 17.0482 23.9993 18.2199Z" stroke="white" stroke-width="2" stroke-linecap="round" stroke-linejoin="round"/>
</svg>
