<svg width="48" height="48" viewBox="0 0 48 48" fill="none" xmlns="http://www.w3.org/2000/svg">
<path d="M16 46C18.2091 46 20 44.2091 20 42C20 39.7909 18.2091 38 16 38C13.7909 38 12 39.7909 12 42C12 44.2091 13.7909 46 16 46Z" stroke="#1AB0CE" stroke-width="4" stroke-linecap="round" stroke-linejoin="round"/>
<path d="M40 46C42.2091 46 44 44.2091 44 42C44 39.7909 42.2091 38 40 38C37.7909 38 36 39.7909 36 42C36 44.2091 37.7909 46 40 46Z" stroke="#1AB0CE" stroke-width="4" stroke-linecap="round" stroke-linejoin="round"/>
<path d="M11.34 12H46L42.64 28.78C42.2625 30.6805 40.5772 32.0371 38.64 32H17.5C15.479 32.0171 13.7627 30.524 13.5 28.52L10.46 5.48C10.1992 3.49119 8.50583 2.00304 6.5 2H2" stroke="#1AB0CE" stroke-width="4" stroke-linecap="round" stroke-linejoin="round"/>
</svg>
